<svg width="975" height="256" viewBox="0 0 975 256" fill="none" xmlns="http://www.w3.org/2000/svg">
<path d="M47.8 178V85.584H74.936C83.8107 85.584 90.7227 87.7173 95.672 91.984C100.707 96.1653 103.224 102.053 103.224 109.648C103.224 118.096 99.64 124.624 92.472 129.232C97.6773 131.195 101.731 134.181 104.632 138.192C107.619 142.117 109.112 146.768 109.112 152.144C109.112 160.421 106.381 166.821 100.92 171.344C95.4587 175.781 87.6507 178 77.496 178H47.8ZM59.32 126.16H74.68C80.056 126.16 84.1947 124.88 87.096 122.32C90.0827 119.675 91.576 116.005 91.576 111.312C91.576 101.499 85.7307 96.592 74.04 96.592H59.32V126.16ZM59.32 166.992H78.904C85.2187 166.992 89.8693 165.797 92.856 163.408C95.928 161.019 97.464 157.221 97.464 152.016C97.464 146.981 95.8853 143.184 92.728 140.624C89.5707 137.979 85.048 136.656 79.16 136.656H59.32V166.992ZM150.188 179.792C144.385 179.792 139.18 178.427 134.572 175.696C130.049 172.88 126.465 169.04 123.82 164.176C121.26 159.312 119.98 153.808 119.98 147.664C119.98 141.52 121.303 136.059 123.948 131.28C126.593 126.501 130.177 122.747 134.7 120.016C139.308 117.2 144.471 115.792 150.188 115.792C155.905 115.792 161.025 117.2 165.548 120.016C170.071 122.747 173.612 126.501 176.172 131.28C178.817 136.059 180.14 141.52 180.14 147.664C180.14 153.808 178.817 159.312 176.172 164.176C173.612 169.04 170.071 172.88 165.548 175.696C161.111 178.427 155.991 179.792 150.188 179.792ZM150.06 168.784C155.521 168.784 159.873 166.864 163.116 163.024C166.444 159.184 168.108 154.064 168.108 147.664C168.108 144.507 167.639 141.605 166.7 138.96C161.58 138.789 156.929 137.765 152.748 135.888C148.652 134.011 145.409 131.451 143.02 128.208C139.607 129.659 136.919 132.133 134.956 135.632C132.993 139.045 132.012 143.141 132.012 147.92C132.012 154.149 133.633 159.184 136.876 163.024C140.204 166.864 144.599 168.784 150.06 168.784ZM224.778 179.792C218.975 179.792 213.77 178.427 209.162 175.696C204.639 172.88 201.055 169.04 198.41 164.176C195.85 159.312 194.57 153.808 194.57 147.664C194.57 143.141 195.338 138.875 196.874 134.864C188.767 136.741 180.063 137.68 170.762 137.68C169.482 137.68 168.458 137.168 167.69 136.144C166.922 135.035 166.538 133.669 166.538 132.048C166.538 128.549 167.946 126.8 170.762 126.8C185.098 126.8 198.239 124.368 210.186 119.504C214.623 117.029 219.487 115.792 224.778 115.792C230.495 115.792 235.615 117.2 240.138 120.016C244.661 122.747 248.202 126.501 250.762 131.28C253.407 136.059 254.73 141.52 254.73 147.664C254.73 153.808 253.407 159.312 250.762 164.176C248.202 169.04 244.661 172.88 240.138 175.696C235.701 178.427 230.581 179.792 224.778 179.792ZM224.65 168.784C230.111 168.784 234.463 166.864 237.706 163.024C241.034 159.184 242.698 154.064 242.698 147.664C242.698 144.507 242.229 141.605 241.29 138.96C236.17 138.789 231.519 137.765 227.338 135.888C223.242 134.011 219.999 131.451 217.61 128.208C214.197 129.659 211.509 132.133 209.546 135.632C207.583 139.045 206.602 143.141 206.602 147.92C206.602 154.149 208.223 159.184 211.466 163.024C214.794 166.864 219.189 168.784 224.65 168.784ZM280.843 178C279.99 178.256 279.051 178.469 278.027 178.64C277.003 178.811 276.022 178.896 275.083 178.896C273.12 178.896 271.115 178.597 269.067 178V136.4C265.995 137.424 262.795 138.235 259.467 138.832C256.054 139.344 252.982 139.6 250.251 139.6C247.264 139.6 245.088 139.216 243.723 138.448C242.358 137.68 241.675 136.187 241.675 133.968C241.675 132.432 241.974 131.323 242.571 130.64C243.168 129.872 243.851 129.488 244.619 129.488H248.075C251.488 129.488 254.944 129.147 258.443 128.464C261.942 127.781 265.483 126.715 269.067 125.264V78.288C269.067 69.7547 270.859 63.184 274.443 58.576C278.112 53.968 283.403 51.7067 290.315 51.792C296.63 51.8773 301.536 54.2667 305.035 58.96C308.619 63.6533 310.411 69.7547 310.411 77.264C310.411 84.688 309.259 91.7707 306.955 98.512C304.651 105.168 301.664 111.141 297.995 116.432C299.702 116.005 301.494 115.792 303.371 115.792C308.918 115.792 313.355 117.456 316.683 120.784C320.011 124.112 321.675 128.507 321.675 133.968C321.675 138.405 320.096 142.331 316.939 145.744C313.782 149.157 309.558 151.717 304.267 153.424C305.974 154.619 307.552 156.027 309.003 157.648L313.227 162.512C316.896 166.693 320.779 168.784 324.875 168.784C325.984 168.784 326.88 169.296 327.563 170.32C328.246 171.344 328.587 172.709 328.587 174.416C328.587 178 327.008 179.792 323.851 179.792C321.035 179.792 318.219 179.067 315.403 177.616C312.672 176.08 310.027 173.989 307.467 171.344L302.091 165.584C300.043 163.365 298.123 161.659 296.331 160.464C294.539 159.184 292.448 158.331 290.059 157.904C287.755 157.392 284.726 157.136 280.971 157.136C280.886 158.501 280.843 159.867 280.843 161.232V178ZM280.459 78.16V120.016C286.347 114.896 290.912 108.667 294.155 101.328C297.398 93.904 299.019 85.84 299.019 77.136C299.019 72.3573 298.208 68.7307 296.587 66.256C295.051 63.696 292.79 62.416 289.803 62.416C283.574 62.416 280.459 67.664 280.459 78.16ZM301.323 125.904C296.8 125.904 292.832 127.909 289.419 131.92C286.091 135.931 283.702 141.221 282.251 147.792C283.702 147.963 285.366 148.048 287.243 148.048C291.68 148.048 295.648 147.451 299.147 146.256C302.646 145.061 305.376 143.44 307.339 141.392C309.387 139.344 310.411 137.04 310.411 134.48C310.411 131.92 309.558 129.872 307.851 128.336C306.23 126.715 304.054 125.904 301.323 125.904ZM323.976 179.792C322.867 179.792 321.971 179.28 321.288 178.256C320.605 177.232 320.264 175.909 320.264 174.288C320.264 170.619 321.8 168.784 324.872 168.784C327.603 168.784 330.632 167.12 333.96 163.792C337.288 160.379 341.171 154.917 345.608 147.408L359.304 124.24C359.133 123.045 359.048 121.765 359.048 120.4C359.048 116.133 359.816 112.976 361.352 110.928C362.973 108.88 364.296 107.643 365.32 107.216C366.771 106.875 368.307 106.917 369.928 107.344C371.635 107.685 373.171 108.283 374.536 109.136C375.901 109.989 376.84 111.013 377.352 112.208C377.011 113.744 376.371 115.579 375.432 117.712C374.493 119.845 373 122.704 370.952 126.288C371.549 127.227 372.317 128.165 373.256 129.104C374.195 130.043 375.347 131.067 376.712 132.176L386.44 140.112C389.939 142.928 392.541 145.872 394.248 148.944C396.04 151.931 396.936 155.301 396.936 159.056C396.936 162.981 395.955 166.523 393.992 169.68C392.029 172.837 389.299 175.312 385.8 177.104C382.301 178.896 378.248 179.792 373.64 179.792C370.653 179.792 367.667 179.323 364.68 178.384C361.693 177.531 358.579 176.123 355.336 174.16C355.165 169.637 356.872 166.309 360.456 164.176C365.149 167.248 369.587 168.784 373.768 168.784C377.352 168.784 380.211 167.845 382.344 165.968C384.477 164.005 385.544 161.531 385.544 158.544C385.544 154.789 383.496 151.291 379.4 148.048L369.672 140.368C367.965 139.003 366.429 137.595 365.064 136.144L352.264 157.776C347.571 165.712 343.048 171.387 338.696 174.8C334.429 178.128 329.523 179.792 323.976 179.792ZM475.498 179.664C467.221 179.579 460.479 177.744 455.274 174.16C450.069 170.491 446.613 165.627 444.906 159.568C445.845 157.947 447.338 156.667 449.386 155.728C451.519 154.704 453.525 154.277 455.402 154.448C456.938 159.056 459.498 162.555 463.082 164.944C466.666 167.333 471.018 168.485 476.138 168.4C481.599 168.315 485.994 166.907 489.322 164.176C492.65 161.36 494.314 157.563 494.314 152.784C494.314 145.531 490.517 140.837 482.922 138.704L465.898 133.968C459.925 132.261 455.231 129.36 451.818 125.264C448.405 121.083 446.698 116.133 446.698 110.416C446.698 105.296 447.978 100.731 450.538 96.72C453.183 92.7093 456.767 89.5947 461.29 87.376C465.898 85.072 471.146 83.92 477.034 83.92C483.605 83.92 489.493 85.328 494.698 88.144C499.989 90.8747 503.701 94.5013 505.834 99.024C505.066 100.389 503.786 101.755 501.994 103.12C500.287 104.4 498.41 105.381 496.362 106.064C492.181 98.8107 485.61 95.184 476.65 95.184C471.359 95.184 467.05 96.5493 463.722 99.28C460.394 101.925 458.73 105.381 458.73 109.648C458.73 116.475 463.125 121.125 471.914 123.6L487.018 127.696C493.077 129.317 497.813 132.347 501.226 136.784C504.639 141.136 506.346 146.427 506.346 152.656C506.346 158.117 504.981 162.896 502.25 166.992C499.605 171.088 495.935 174.245 491.242 176.464C486.634 178.597 481.386 179.664 475.498 179.664ZM550.504 179.792C543.848 179.792 538.045 178.469 533.096 175.824C528.147 173.179 524.307 169.509 521.576 164.816C518.845 160.037 517.48 154.448 517.48 148.048C517.48 141.733 518.675 136.187 521.064 131.408C523.453 126.544 526.739 122.747 530.92 120.016C535.187 117.2 540.051 115.792 545.512 115.792C549.608 115.792 553.32 116.603 556.648 118.224C560.061 119.76 562.835 122.021 564.968 125.008C563.944 128.507 561.469 131.024 557.544 132.56C554.728 128.72 550.845 126.8 545.896 126.8C540.947 126.8 536.936 128.677 533.864 132.432C530.877 136.101 529.384 141.093 529.384 147.408C529.384 153.893 531.261 159.099 535.016 163.024C538.856 166.949 544.275 168.912 551.272 168.912C552.381 168.912 553.277 169.467 553.96 170.576C554.728 171.6 555.112 172.923 555.112 174.544C555.112 176.165 554.685 177.445 553.832 178.384C553.064 179.323 551.955 179.792 550.504 179.792ZM550.938 179.792C549.743 179.792 548.762 179.28 547.994 178.256C547.226 177.232 546.842 175.952 546.842 174.416C546.842 170.747 548.378 168.912 551.45 168.912C561.775 168.912 569.839 165.115 575.642 157.52C578.031 154.363 579.866 150.736 581.146 146.64C582.426 142.544 583.066 138.32 583.066 133.968C583.066 132.517 582.981 131.067 582.81 129.616C582.725 128.165 582.554 127.013 582.298 126.16C581.359 125.136 580.421 123.771 579.482 122.064C578.543 120.357 577.775 118.651 577.178 116.944C576.666 115.152 576.41 113.616 576.41 112.336C577.519 110.715 579.311 109.435 581.786 108.496C584.261 107.557 586.607 107.301 588.826 107.728C590.447 110.715 591.77 114.384 592.794 118.736C594.927 118.565 597.53 118.096 600.602 117.328C603.333 116.731 605.509 116.347 607.13 116.176C608.837 115.92 610.287 115.792 611.482 115.792C616.09 115.792 619.717 117.541 622.362 121.04C625.007 124.453 626.33 129.104 626.33 134.992V155.6C626.33 160.293 626.927 163.664 628.122 165.712C629.402 167.76 631.407 168.784 634.138 168.784C635.333 168.784 636.229 169.296 636.826 170.32C637.509 171.344 637.85 172.709 637.85 174.416C637.85 175.781 637.466 177.019 636.698 178.128C636.015 179.237 634.863 179.792 633.242 179.792C620.869 179.792 614.682 172.197 614.682 157.008V137.168C614.682 133.328 614.255 130.64 613.402 129.104C612.549 127.568 611.013 126.8 608.794 126.8C608.026 126.8 607.173 126.885 606.234 127.056C605.295 127.227 603.631 127.568 601.242 128.08C598.426 128.677 596.122 129.104 594.33 129.36C594.415 130.64 594.458 131.92 594.458 133.2C594.458 139.344 593.519 145.275 591.642 150.992C589.85 156.624 587.247 161.488 583.834 165.584C576.069 175.056 565.103 179.792 550.938 179.792ZM634.122 168.784C637.023 168.784 639.839 167.376 642.57 164.56C645.386 161.659 647.733 157.776 649.61 152.912C649.525 151.717 649.482 150.523 649.482 149.328C649.482 142.843 650.762 137.083 653.322 132.048C655.882 127.013 659.338 123.045 663.69 120.144C668.127 117.243 673.162 115.792 678.794 115.792C681.781 115.792 684.725 116.389 687.626 117.584C690.527 118.693 692.959 120.229 694.922 122.192V116.944C695.69 116.688 696.586 116.475 697.61 116.304C698.634 116.133 699.701 116.048 700.81 116.048C702.858 116.048 704.778 116.347 706.57 116.944V154.448C706.57 158.971 707.253 162.512 708.618 165.072C710.069 167.547 712.458 168.784 715.786 168.784C717.237 168.784 718.218 169.381 718.73 170.576C719.242 171.771 719.498 173.051 719.498 174.416C719.498 175.781 719.114 177.019 718.346 178.128C717.663 179.237 716.511 179.792 714.89 179.792C706.527 179.792 700.938 176.037 698.122 168.528C695.647 172.027 692.533 174.8 688.778 176.848C685.109 178.811 681.013 179.792 676.49 179.792C671.541 179.792 667.146 178.725 663.306 176.592C659.551 174.373 656.479 171.344 654.09 167.504C648.799 175.696 641.845 179.792 633.226 179.792C632.117 179.792 631.221 179.28 630.538 178.256C629.855 177.232 629.514 175.909 629.514 174.288C629.514 170.619 631.05 168.784 634.122 168.784ZM661.386 149.328C661.386 155.387 662.751 160.165 665.482 163.664C668.298 167.077 672.138 168.784 677.002 168.784C682.378 168.784 686.687 166.949 689.93 163.28C693.258 159.611 694.922 154.789 694.922 148.816V134.48C693.215 132.176 691.039 130.341 688.394 128.976C685.749 127.525 683.018 126.8 680.202 126.8C676.533 126.8 673.29 127.781 670.474 129.744C667.658 131.707 665.439 134.395 663.818 137.808C662.197 141.136 661.386 144.976 661.386 149.328ZM715.235 179.792C713.87 179.792 712.846 179.195 712.163 178C711.48 176.891 711.139 175.653 711.139 174.288C711.139 172.837 711.523 171.557 712.291 170.448C713.059 169.339 714.296 168.784 716.003 168.784C718.904 168.784 721.55 167.504 723.939 164.944C726.414 162.299 728.632 158.928 730.595 154.832C732.643 150.736 734.478 146.384 736.099 141.776C737.464 137.851 738.958 133.755 740.579 129.488C742.2 125.221 743.566 121.04 744.675 116.944C746.382 116.517 748.387 116.347 750.691 116.432C752.995 116.517 754.915 116.901 756.451 117.584L757.219 126.416C761.827 119.333 767.971 115.792 775.651 115.792C781.966 115.792 786.958 118.011 790.627 122.448C794.296 126.8 796.131 132.859 796.131 140.624V155.6C796.131 160.293 796.728 163.664 797.923 165.712C799.203 167.76 801.208 168.784 803.939 168.784C805.134 168.784 806.03 169.296 806.627 170.32C807.31 171.344 807.651 172.709 807.651 174.416C807.651 175.781 807.267 177.019 806.499 178.128C805.816 179.237 804.664 179.792 803.043 179.792C790.67 179.792 784.483 172.197 784.483 157.008V140.624C784.483 131.408 781.112 126.8 774.371 126.8C771.384 126.8 768.654 127.952 766.179 130.256C763.704 132.56 761.742 135.632 760.291 139.472C758.926 143.227 758.243 147.451 758.243 152.144V225.104C757.39 225.36 756.451 225.573 755.427 225.744C754.403 225.915 753.422 226 752.483 226C750.435 226 748.472 225.701 746.595 225.104V143.824L746.083 145.232C743.694 152.059 741.134 158.075 738.403 163.28C735.758 168.485 732.6 172.539 728.931 175.44C725.262 178.341 720.696 179.792 715.235 179.792ZM803.101 179.792C801.992 179.792 801.096 179.28 800.413 178.256C799.73 177.232 799.389 175.909 799.389 174.288C799.389 170.619 800.925 168.784 803.997 168.784C806.472 168.784 808.989 168.4 811.549 167.632C814.109 166.779 817.096 165.371 820.509 163.408C817.181 157.605 815.517 150.779 815.517 142.928C815.517 137.637 816.498 132.987 818.461 128.976C820.424 124.88 823.154 121.68 826.653 119.376C830.152 116.987 834.12 115.792 838.557 115.792C842.312 115.792 845.64 116.688 848.541 118.48C851.442 120.187 853.704 122.576 855.325 125.648C856.946 128.72 857.757 132.261 857.757 136.272C857.757 141.733 856.136 146.725 852.893 151.248C849.736 155.771 844.36 160.677 836.765 165.968C839.496 167.931 843.165 168.912 847.773 168.912C848.968 168.912 849.906 169.424 850.589 170.448C851.272 171.472 851.613 172.837 851.613 174.544C851.613 176.165 851.229 177.445 850.461 178.384C849.693 179.323 848.584 179.792 847.133 179.792C843.037 179.792 839.197 179.109 835.613 177.744C832.029 176.379 829.042 174.501 826.653 172.112C818.461 177.232 810.61 179.792 803.101 179.792ZM826.653 141.904C826.653 148.645 827.848 154.021 830.237 158.032C835.784 154.192 839.88 150.437 842.525 146.768C845.256 143.099 846.621 139.6 846.621 136.272C846.621 133.2 845.853 130.811 844.317 129.104C842.866 127.312 840.818 126.416 838.173 126.416C834.845 126.416 832.072 127.909 829.853 130.896C827.72 133.883 826.653 137.552 826.653 141.904ZM847.438 179.792C846.243 179.792 845.262 179.28 844.494 178.256C843.726 177.232 843.342 175.952 843.342 174.416C843.342 170.747 844.878 168.912 847.95 168.912C858.275 168.912 866.339 165.115 872.142 157.52C874.531 154.363 876.366 150.736 877.646 146.64C878.926 142.544 879.566 138.32 879.566 133.968C879.566 132.517 879.481 131.067 879.31 129.616C879.225 128.165 879.054 127.013 878.798 126.16C877.859 125.136 876.921 123.771 875.982 122.064C875.043 120.357 874.275 118.651 873.678 116.944C873.166 115.152 872.91 113.616 872.91 112.336C874.019 110.715 875.811 109.435 878.286 108.496C880.761 107.557 883.107 107.301 885.326 107.728C886.947 110.715 888.27 114.384 889.294 118.736C891.427 118.565 894.03 118.096 897.102 117.328C899.833 116.731 902.009 116.347 903.63 116.176C905.337 115.92 906.787 115.792 907.982 115.792C912.59 115.792 916.217 117.541 918.862 121.04C921.507 124.453 922.83 129.104 922.83 134.992V155.6C922.83 160.293 923.427 163.664 924.622 165.712C925.902 167.76 927.907 168.784 930.638 168.784C931.577 168.784 932.601 168.571 933.71 168.144C934.819 167.717 935.971 167.077 937.166 166.224C938.617 166.907 939.811 168.101 940.75 169.808C941.689 171.429 942.115 173.051 942.03 174.672C940.665 176.208 938.915 177.445 936.782 178.384C934.649 179.323 932.345 179.792 929.87 179.792H929.742C917.369 179.792 911.182 172.197 911.182 157.008V137.168C911.182 133.328 910.755 130.64 909.902 129.104C909.049 127.568 907.513 126.8 905.294 126.8C904.526 126.8 903.673 126.885 902.734 127.056C901.795 127.227 900.131 127.568 897.742 128.08C894.926 128.677 892.622 129.104 890.83 129.36C890.915 130.64 890.958 131.92 890.958 133.2C890.958 139.344 890.019 145.275 888.142 150.992C886.35 156.624 883.747 161.488 880.334 165.584C872.569 175.056 861.603 179.792 847.438 179.792Z" fill="#201A65"/>
</svg>
